<?xml version="1.0" encoding="UTF-8" standalone="no"?>
<svg
   width="32in"
   height="20in"
   viewBox="0 0 812.80002 508.00002"
   version="1.1"
   id="svg10589"
   sodipodi:docname="electronicsEnclosure.svg"
   inkscape:version="1.2.2 (732a01da63, 2022-12-09)"
   xmlns:inkscape="http://www.inkscape.org/namespaces/inkscape"
   xmlns:sodipodi="http://sodipodi.sourceforge.net/DTD/sodipodi-0.dtd"
   xmlns="http://www.w3.org/2000/svg"
   xmlns:svg="http://www.w3.org/2000/svg"
   xmlns:rdf="http://www.w3.org/1999/02/22-rdf-syntax-ns#"
   xmlns:cc="http://creativecommons.org/ns#"
   xmlns:dc="http://purl.org/dc/elements/1.1/">
  <defs
     id="defs10593" />
  <sodipodi:namedview
     id="namedview10591"
     pagecolor="#ffffff"
     bordercolor="#000000"
     borderopacity="0.25"
     inkscape:showpageshadow="2"
     inkscape:pageopacity="0.0"
     inkscape:pagecheckerboard="0"
     inkscape:deskcolor="#d1d1d1"
     inkscape:document-units="mm"
     showgrid="false"
     inkscape:zoom="0.6740525"
     inkscape:cx="647.57567"
     inkscape:cy="575.62282"
     inkscape:window-width="1920"
     inkscape:window-height="1009"
     inkscape:window-x="-8"
     inkscape:window-y="-8"
     inkscape:window-maximized="1"
     inkscape:current-layer="svg10589" />
  <!--
ClosedBox - Fully closed box


This box is more of a building block than a finished item.
Use a vector graphics program (like Inkscape) to add holes or adjust the base
plate.

See BasedBox for variant with a base.


Created with Boxes.py (https://festi.info/boxes.py)
Creation date: 2023-04-27 22:50:19
Command line (remove spaces between dashes): boxes ClosedBox - -x=178 - -y=127 - -h=77 - -outside=0 - -thickness=3.175 - -labels=0 - -inner_corners=corner
Url: http://www.festi.info/boxes.py/ClosedBox?FingerJoint_angle=90.0&FingerJoint_style=rectangular&FingerJoint_surroundingspaces=2.0&FingerJoint_bottom_lip=0.0&FingerJoint_edge_width=1.0&FingerJoint_extra_length=0.0&FingerJoint_finger=2.0&FingerJoint_play=0.0&FingerJoint_space=2.0&FingerJoint_width=1.0&x=178&y=127&h=77&outside=0&thickness=3.175&format=svg&tabs=0.0&qr_code=0&debug=0&labels=0&reference=100&inner_corners=corner&burn=0.1&language=en&render=2
Url short: http://www.festi.info/boxes.py/ClosedBox?x=178&y=127&h=77&outside=0&thickness=3.175&labels=0&inner_corners=corner
SettingsUrl: http://www.festi.info/boxes.py/ClosedBox?FingerJoint_angle=90.0&FingerJoint_style=rectangular&FingerJoint_surroundingspaces=2.0&FingerJoint_bottom_lip=0.0&FingerJoint_edge_width=1.0&FingerJoint_extra_length=0.0&FingerJoint_finger=2.0&FingerJoint_play=0.0&FingerJoint_space=2.0&FingerJoint_width=1.0&x=178&y=127&h=77&outside=0&thickness=3.175&format=svg&tabs=0.0&qr_code=0&debug=0&labels=0&reference=100&inner_corners=corner&burn=0.1&language=en&render=2
SettingsUrl short: http://www.festi.info/boxes.py/ClosedBox?x=178&y=127&h=77&outside=0&thickness=3.175&labels=0&inner_corners=corner
-->
  <title
     id="title10562">ClosedBox</title>
  <metadata
     id="metadata10564">
    <rdf:RDF>
      <cc:Work>
        <dc:title>Box - ClosedBox</dc:title>
        <dc:date>2023-04-27 22:50:19</dc:date>
        <dc:source>http://www.festi.info/boxes.py/ClosedBox?FingerJoint_angle=90.0&amp;FingerJoint_style=rectangular&amp;FingerJoint_surroundingspaces=2.0&amp;FingerJoint_bottom_lip=0.0&amp;FingerJoint_edge_width=1.0&amp;FingerJoint_extra_length=0.0&amp;FingerJoint_finger=2.0&amp;FingerJoint_play=0.0&amp;FingerJoint_space=2.0&amp;FingerJoint_width=1.0&amp;x=178&amp;y=127&amp;h=77&amp;outside=0&amp;thickness=3.175&amp;format=svg&amp;tabs=0.0&amp;qr_code=0&amp;debug=0&amp;labels=0&amp;reference=100&amp;inner_corners=corner&amp;burn=0.1&amp;language=en&amp;render=2</dc:source>
        <dc:source>http://www.festi.info/boxes.py/ClosedBox?x=178&amp;y=127&amp;h=77&amp;outside=0&amp;thickness=3.175&amp;labels=0&amp;inner_corners=corner</dc:source>
        <dc:description>Fully closed box

This box is more of a building block than a finished item.
Use a vector graphics program (like Inkscape) to add holes or adjust the base
plate.

See BasedBox for variant with a base.

Created with Boxes.py (https://festi.info/boxes.py)
Command line: boxes ClosedBox --FingerJoint_angle=90.0 --FingerJoint_style=rectangular --FingerJoint_surroundingspaces=2.0 --FingerJoint_bottom_lip=0.0 --FingerJoint_edge_width=1.0 --FingerJoint_extra_length=0.0 --FingerJoint_finger=2.0 --FingerJoint_play=0.0 --FingerJoint_space=2.0 --FingerJoint_width=1.0 --x=178 --y=127 --h=77 --outside=0 --thickness=3.175 --format=svg --tabs=0.0 --qr_code=0 --debug=0 --labels=0 --reference=100 --inner_corners=corner --burn=0.1
Command line short: boxes ClosedBox --x=178 --y=127 --h=77 --outside=0 --thickness=3.175 --labels=0 --inner_corners=corner
Url: http://www.festi.info/boxes.py/ClosedBox?FingerJoint_angle=90.0&amp;FingerJoint_style=rectangular&amp;FingerJoint_surroundingspaces=2.0&amp;FingerJoint_bottom_lip=0.0&amp;FingerJoint_edge_width=1.0&amp;FingerJoint_extra_length=0.0&amp;FingerJoint_finger=2.0&amp;FingerJoint_play=0.0&amp;FingerJoint_space=2.0&amp;FingerJoint_width=1.0&amp;x=178&amp;y=127&amp;h=77&amp;outside=0&amp;thickness=3.175&amp;format=svg&amp;tabs=0.0&amp;qr_code=0&amp;debug=0&amp;labels=0&amp;reference=100&amp;inner_corners=corner&amp;burn=0.1&amp;language=en&amp;render=2
Url short: http://www.festi.info/boxes.py/ClosedBox?x=178&amp;y=127&amp;h=77&amp;outside=0&amp;thickness=3.175&amp;labels=0&amp;inner_corners=corner
SettingsUrl: http://www.festi.info/boxes.py/ClosedBox?FingerJoint_angle=90.0&amp;FingerJoint_style=rectangular&amp;FingerJoint_surroundingspaces=2.0&amp;FingerJoint_bottom_lip=0.0&amp;FingerJoint_edge_width=1.0&amp;FingerJoint_extra_length=0.0&amp;FingerJoint_finger=2.0&amp;FingerJoint_play=0.0&amp;FingerJoint_space=2.0&amp;FingerJoint_width=1.0&amp;x=178&amp;y=127&amp;h=77&amp;outside=0&amp;thickness=3.175&amp;format=svg&amp;tabs=0.0&amp;qr_code=0&amp;debug=0&amp;labels=0&amp;reference=100&amp;inner_corners=corner&amp;burn=0.1&amp;language=en&amp;render=2
SettingsUrl short: http://www.festi.info/boxes.py/ClosedBox?x=178&amp;y=127&amp;h=77&amp;outside=0&amp;thickness=3.175&amp;labels=0&amp;inner_corners=corner
</dc:description>
      </cc:Work>
    </rdf:RDF>
  </metadata>
  <g
     id="p-1"
     style="fill:none;stroke:#ff0000;stroke-width:0.01;stroke-linecap:round;stroke-linejoin:round;stroke-dasharray:none;stroke-opacity:1">
    <path
       d="M 13.575,313.825 H 23.2 c 0.055,0 0.1,-0.045 0.1,-0.1 v -3.075 h 6.15 v 3.075 c 0,0.055 0.045,0.1 0.1,0.1 h 6.35 c 0.055,0 0.1,-0.045 0.1,-0.1 v -3.075 h 6.15 v 3.075 c 0,0.055 0.045,0.1 0.1,0.1 h 6.35 c 0.055,0 0.1,-0.045 0.1,-0.1 v -3.075 h 6.15 v 3.075 c 0,0.055 0.045,0.1 0.1,0.1 h 6.35 c 0.055,0 0.1,-0.045 0.1,-0.1 v -3.075 h 6.15 v 3.075 c 0,0.055 0.045,0.1 0.1,0.1 H 74 c 0.055,0 0.1,-0.045 0.1,-0.1 v -3.075 h 6.15 v 3.075 c 0,0.055 0.045,0.1 0.1,0.1 h 6.35 c 0.055,0 0.1,-0.045 0.1,-0.1 v -3.075 h 6.15 v 3.075 c 0,0.055 0.045,0.1 0.1,0.1 h 6.35 c 0.055,0 0.1,-0.045 0.1,-0.1 v -3.075 h 6.15 v 3.075 c 0,0.055 0.045,0.1 0.1,0.1 h 6.35 c 0.055,0 0.1,-0.045 0.1,-0.1 v -3.075 h 6.15 v 3.075 c 0,0.055 0.045,0.1 0.1,0.1 h 6.35 c 0.055,0 0.1,-0.045 0.1,-0.1 v -3.075 h 6.15 v 3.075 c 0,0.055 0.045,0.1 0.1,0.1 h 6.35 c 0.055,0 0.1,-0.045 0.1,-0.1 v -3.075 h 6.15 v 3.075 c 0,0.055 0.045,0.1 0.1,0.1 h 6.35 c 0.055,0 0.1,-0.045 0.1,-0.1 v -3.075 h 6.15 v 3.075 c 0,0.055 0.045,0.1 0.1,0.1 h 6.35 c 0.055,0 0.1,-0.045 0.1,-0.1 v -3.075 h 6.15 v 3.075 c 0,0.055 0.045,0.1 0.1,0.1 h 6.35 c 0.055,0 0.1,-0.045 0.1,-0.1 v -3.075 h 6.15 v 3.075 c 0,0.055 0.045,0.1 0.1,0.1 h 9.625 3.175 c 0.055,0 0.1,-0.045 0.1,-0.1 v -3.175 -9.925 c 0,-0.055 -0.045,-0.1 -0.1,-0.1 h -3.075 v -6.15 h 3.075 c 0.055,0 0.1,-0.045 0.1,-0.1 v -6.35 c 0,-0.055 -0.045,-0.1 -0.1,-0.1 h -3.075 v -6.15 h 3.075 c 0.055,0 0.1,-0.045 0.1,-0.1 v -6.35 c 0,-0.055 -0.045,-0.1 -0.1,-0.1 h -3.075 v -6.15 h 3.075 c 0.055,0 0.1,-0.045 0.1,-0.1 v -6.35 c 0,-0.055 -0.045,-0.1 -0.1,-0.1 h -3.075 v -6.15 h 3.075 c 0.055,0 0.1,-0.045 0.1,-0.1 v -6.35 c 0,-0.055 -0.045,-0.1 -0.1,-0.1 h -3.075 v -6.15 h 3.075 c 0.055,0 0.1,-0.045 0.1,-0.1 v -9.925 -3.175 c 0,-0.055 -0.045,-0.1 -0.1,-0.1 h -3.175 -9.625 c -0.055,0 -0.1,0.045 -0.1,0.1 v 3.075 h -6.15 v -3.075 c 0,-0.055 -0.045,-0.1 -0.1,-0.1 h -6.35 c -0.055,0 -0.1,0.045 -0.1,0.1 v 3.075 H 163 v -3.075 c 0,-0.055 -0.045,-0.1 -0.1,-0.1 h -6.35 c -0.055,0 -0.1,0.045 -0.1,0.1 v 3.075 h -6.15 v -3.075 c 0,-0.055 -0.045,-0.1 -0.1,-0.1 h -6.35 c -0.055,0 -0.1,0.045 -0.1,0.1 v 3.075 h -6.15 v -3.075 c 0,-0.055 -0.045,-0.1 -0.1,-0.1 h -6.35 c -0.055,0 -0.1,0.045 -0.1,0.1 v 3.075 h -6.15 v -3.075 c 0,-0.055 -0.045,-0.1 -0.1,-0.1 h -6.35 c -0.055,0 -0.1,0.045 -0.1,0.1 v 3.075 h -6.15 v -3.075 c 0,-0.055 -0.045,-0.1 -0.1,-0.1 h -6.35 c -0.055,0 -0.1,0.045 -0.1,0.1 v 3.075 H 99.5 v -3.075 c 0,-0.055 -0.045,-0.1 -0.1,-0.1 h -6.35 c -0.055,0 -0.1,0.045 -0.1,0.1 v 3.075 H 86.8 v -3.075 c 0,-0.055 -0.045,-0.1 -0.1,-0.1 h -6.35 c -0.055,0 -0.1,0.045 -0.1,0.1 v 3.075 H 74.1 v -3.075 c 0,-0.055 -0.045,-0.1 -0.1,-0.1 h -6.35 c -0.055,0 -0.1,0.045 -0.1,0.1 v 3.075 H 61.4 v -3.075 c 0,-0.055 -0.045,-0.1 -0.1,-0.1 h -6.35 c -0.055,0 -0.1,0.045 -0.1,0.1 v 3.075 H 48.7 v -3.075 c 0,-0.055 -0.045,-0.1 -0.1,-0.1 h -6.35 c -0.055,0 -0.1,0.045 -0.1,0.1 v 3.075 H 36 v -3.075 c 0,-0.055 -0.045,-0.1 -0.1,-0.1 h -6.35 c -0.055,0 -0.1,0.045 -0.1,0.1 v 3.075 H 23.3 v -3.075 c 0,-0.055 -0.045,-0.1 -0.1,-0.1 H 13.575 10.4 c -0.055,0 -0.1,0.045 -0.1,0.1 v 3.175 9.925 c 0,0.055 0.045,0.1 0.1,0.1 h 3.075 v 6.15 H 10.4 c -0.055,0 -0.1,0.045 -0.1,0.1 v 6.35 c 0,0.055 0.045,0.1 0.1,0.1 h 3.075 v 6.15 H 10.4 c -0.055,0 -0.1,0.045 -0.1,0.1 v 6.35 c 0,0.055 0.045,0.1 0.1,0.1 h 3.075 v 6.15 H 10.4 c -0.055,0 -0.1,0.045 -0.1,0.1 v 6.35 c 0,0.055 0.045,0.1 0.1,0.1 h 3.075 v 6.15 H 10.4 c -0.055,0 -0.1,0.045 -0.1,0.1 v 6.35 c 0,0.055 0.045,0.1 0.1,0.1 h 3.075 v 6.15 H 10.4 c -0.055,0 -0.1,0.045 -0.1,0.1 v 9.925 3.175 c 0,0.055 0.045,0.1 0.1,0.1 z"
       stroke="rgb(0,0,0)"
       stroke-width="0.20"
       id="path10571"
       style="stroke:#ff0000;stroke-width:0.01;stroke-dasharray:none;stroke-opacity:1" />
  </g>
  <g
     id="p-2"
     style="fill:none;stroke:#ff0000;stroke-width:0.01;stroke-linecap:round;stroke-linejoin:round;stroke-dasharray:none;stroke-opacity:1">
    <path
       d="m 199.713,313.825 h 9.525 c 0.055,0 0.1,-0.045 0.1,-0.1 v -3.075 h 6.149 v 3.075 c 0.001,0.055 0.045,0.1 0.101,0.1 h 6.35 c 0.055,0 0.1,-0.045 0.1,-0.1 v -3.075 h 6.15 v 3.075 c 0,0.055 0.044,0.1 0.1,0.1 h 6.35 c 0.055,0 0.1,-0.045 0.1,-0.1 v -3.075 h 6.15 v 3.075 c 0,0.055 0.044,0.1 0.1,0.1 h 6.35 c 0.055,0 0.1,-0.045 0.1,-0.1 v -3.075 h 6.15 v 3.075 c 0,0.055 0.044,0.1 0.1,0.1 h 6.35 c 0.055,0 0.099,-0.045 0.099,-0.1 v -3.075 h 6.151 v 3.075 c 0,0.055 0.044,0.1 0.1,0.1 h 6.35 c 0.055,0 0.1,-0.045 0.1,-0.1 v -3.075 h 6.15 v 3.075 c 0,0.055 0.044,0.1 0.1,0.1 h 6.35 c 0.055,0 0.1,-0.045 0.1,-0.1 v -3.075 h 6.149 v 3.075 c 10e-4,0.055 0.045,0.1 0.101,0.1 h 6.35 c 0.055,0 0.1,-0.045 0.1,-0.1 v -3.075 h 6.149 v 3.075 c 10e-4,0.055 0.045,0.1 0.101,0.1 h 6.35 c 0.055,0 0.1,-0.045 0.1,-0.1 v -3.075 h 6.149 v 3.075 c 0.001,0.055 0.045,0.1 0.101,0.1 h 9.525 c 0.055,0 0.1,-0.045 0.1,-0.1 v -3.175 -9.825 h 3.075 c 0.055,0 0.1,-0.045 0.1,-0.1 v -6.35 c 0,-0.055 -0.045,-0.1 -0.1,-0.1 h -3.075 v -6.15 h 3.075 c 0.055,0 0.1,-0.045 0.1,-0.1 v -6.35 c 0,-0.055 -0.045,-0.1 -0.1,-0.1 h -3.075 v -6.15 h 3.075 c 0.055,0 0.1,-0.045 0.1,-0.1 v -6.35 c 0,-0.055 -0.045,-0.1 -0.1,-0.1 h -3.075 v -6.15 h 3.075 c 0.055,0 0.1,-0.045 0.1,-0.1 v -6.35 c 0,-0.055 -0.045,-0.1 -0.1,-0.1 h -3.076 v -6.15 h 3.076 c 0.055,0 0.1,-0.045 0.1,-0.1 v -6.35 c 0,-0.055 -0.045,-0.1 -0.1,-0.1 h -3.076 v -9.825 -3.175 c 10e-4,-0.055 -0.044,-0.1 -0.099,-0.1 h -9.525 c -0.056,0 -0.1,0.045 -0.1,0.1 v 3.075 h -6.151 v -3.075 c 10e-4,-0.055 -0.044,-0.1 -0.099,-0.1 h -6.35 c -0.056,0 -0.1,0.045 -0.1,0.1 v 3.075 h -6.151 v -3.075 c 10e-4,-0.055 -0.044,-0.1 -0.099,-0.1 h -6.35 c -0.056,0 -0.1,0.045 -0.1,0.1 v 3.075 h -6.15 v -3.075 c 0,-0.055 -0.045,-0.1 -0.1,-0.1 h -6.35 c -0.056,0 -0.1,0.045 -0.1,0.1 v 3.075 h -6.151 v -3.075 c 0.001,-0.055 -0.044,-0.1 -0.099,-0.1 h -6.35 c -0.056,0 -0.1,0.045 -0.1,0.1 v 3.075 h -6.151 v -3.075 c 10e-4,-0.055 -0.044,-0.1 -0.099,-0.1 h -6.35 c -0.056,0 -0.1,0.045 -0.1,0.1 v 3.075 h -6.15 v -3.075 c 0,-0.055 -0.045,-0.1 -0.1,-0.1 h -6.35 c -0.056,0 -0.1,0.045 -0.1,0.1 v 3.075 h -6.15 v -3.075 c 0,-0.055 -0.045,-0.1 -0.1,-0.1 h -6.35 c -0.056,0 -0.1,0.045 -0.1,0.1 v 3.075 h -6.15 v -3.075 c 0,-0.055 -0.045,-0.1 -0.1,-0.1 h -6.35 c -0.056,0 -0.1,0.045 -0.1,0.1 v 3.075 h -6.15 v -3.075 c 0,-0.055 -0.045,-0.1 -0.1,-0.1 h -9.525 c -0.056,0 -0.1,0.045 -0.1,0.1 v 3.175 9.825 h -3.075 c -0.056,0 -0.1,0.045 -0.1,0.1 v 6.35 c 0,0.055 0.044,0.1 0.1,0.1 h 3.075 v 6.15 h -3.075 c -0.056,0 -0.1,0.045 -0.1,0.1 v 6.35 c 0,0.055 0.044,0.1 0.1,0.1 h 3.074 v 6.15 h -3.074 c -0.056,0 -0.1,0.045 -0.1,0.1 v 6.35 c 0,0.055 0.044,0.1 0.1,0.1 h 3.075 v 6.15 h -3.075 c -0.056,0 -0.1,0.045 -0.1,0.1 v 6.35 c 0,0.055 0.044,0.1 0.1,0.1 h 3.075 v 6.15 h -3.075 c -0.056,0 -0.1,0.045 -0.1,0.1 v 6.35 c 0,0.055 0.044,0.1 0.1,0.1 h 3.075 v 9.825 3.175 c 0,0.055 0.044,0.1 0.1,0.1 z"
       stroke="rgb(0,0,0)"
       stroke-width="0.20"
       id="path10574"
       style="stroke:#ff0000;stroke-width:0.01;stroke-dasharray:none;stroke-opacity:1" />
  </g>
  <g
     id="p-3"
     style="fill:none;stroke:#ff0000;stroke-width:0.01;stroke-linecap:round;stroke-linejoin:round;stroke-dasharray:none;stroke-opacity:1">
    <path
       d="m 199.713,228.688 h 9.525 c 0.055,0 0.1,-0.045 0.1,-0.1 v -3.075 h 6.149 v 3.075 c 0.001,0.055 0.045,0.1 0.101,0.1 h 6.35 c 0.055,0 0.1,-0.045 0.1,-0.1 v -3.075 h 6.149 v 3.075 c 10e-4,0.055 0.045,0.1 0.101,0.1 h 6.35 c 0.055,0 0.1,-0.045 0.1,-0.1 v -3.076 h 6.149 v 3.076 c 0.001,0.055 0.045,0.1 0.101,0.1 h 6.35 c 0.055,0 0.1,-0.045 0.1,-0.1 v -3.076 h 6.149 v 3.076 c 0.001,0.055 0.045,0.1 0.101,0.1 h 6.35 c 0.055,0 0.099,-0.045 0.099,-0.1 v -3.075 h 6.15 v 3.075 c 0.001,0.055 0.045,0.1 0.101,0.1 h 6.35 c 0.055,0 0.1,-0.045 0.1,-0.1 v -3.076 h 6.15 v 3.076 c 0,0.055 0.044,0.1 0.1,0.1 h 6.35 c 0.055,0 0.1,-0.045 0.1,-0.1 v -3.076 h 6.15 v 3.076 c 0,0.055 0.044,0.1 0.1,0.1 h 6.35 c 0.055,0 0.1,-0.045 0.1,-0.1 v -3.076 h 6.149 v 3.076 c 10e-4,0.055 0.045,0.1 0.101,0.1 h 6.35 c 0.055,0 0.1,-0.045 0.1,-0.1 v -3.076 h 6.15 v 3.076 c 0,0.055 0.044,0.1 0.1,0.1 h 9.525 c 0.055,0 0.1,-0.045 0.1,-0.1 v -3.175 -9.826 h 3.075 c 0.055,0.001 0.1,-0.044 0.1,-0.099 v -6.35 c 0,-0.056 -0.045,-0.1 -0.1,-0.1 h -3.075 v -6.15 h 3.075 c 0.055,0 0.1,-0.045 0.1,-0.1 v -6.35 c 0,-0.056 -0.045,-0.1 -0.1,-0.1 h -3.075 v -6.15 h 3.075 c 0.055,0 0.1,-0.045 0.1,-0.1 v -6.35 c 0,-0.056 -0.045,-0.1 -0.1,-0.1 h -3.076 v -6.15 h 3.076 c 0.055,0 0.1,-0.045 0.1,-0.1 v -6.35 c 0,-0.056 -0.045,-0.1 -0.1,-0.1 h -3.075 v -6.15 h 3.075 c 0.055,0 0.1,-0.045 0.1,-0.1 v -6.35 c 0,-0.056 -0.045,-0.1 -0.1,-0.1 h -3.075 v -9.825 -3.175 c 0,-0.056 -0.045,-0.1 -0.1,-0.1 h -9.525 c -0.056,0 -0.1,0.044 -0.1,0.1 v 3.074 h -6.15 v -3.074 c 0,-0.056 -0.045,-0.1 -0.1,-0.1 h -6.35 c -0.056,0 -0.1,0.044 -0.1,0.1 v 3.074 h -6.15 v -3.074 c 0,-0.056 -0.045,-0.1 -0.1,-0.1 h -6.35 c -0.056,0 -0.1,0.044 -0.1,0.1 v 3.074 h -6.151 v -3.074 c 0.001,-0.056 -0.044,-0.1 -0.099,-0.1 h -6.35 c -0.056,0 -0.1,0.044 -0.1,0.1 v 3.074 h -6.151 v -3.074 c 0.001,-0.056 -0.044,-0.1 -0.099,-0.1 h -6.35 c -0.056,0 -0.1,0.044 -0.1,0.1 v 3.074 h -6.151 v -3.074 c 10e-4,-0.056 -0.044,-0.1 -0.099,-0.1 h -6.35 c -0.056,0 -0.1,0.044 -0.1,0.1 v 3.075 h -6.15 v -3.075 c 0,-0.056 -0.045,-0.1 -0.1,-0.1 h -6.35 c -0.056,0 -0.1,0.044 -0.1,0.1 v 3.074 h -6.151 v -3.074 c 0.001,-0.056 -0.044,-0.1 -0.099,-0.1 h -6.35 c -0.056,0 -0.1,0.044 -0.1,0.1 v 3.075 h -6.151 v -3.075 c 0.001,-0.056 -0.044,-0.1 -0.099,-0.1 h -6.35 c -0.056,0 -0.1,0.044 -0.1,0.1 v 3.074 h -6.151 v -3.074 c 0.001,-0.056 -0.044,-0.1 -0.099,-0.1 h -9.525 c -0.056,0 -0.1,0.044 -0.1,0.1 v 3.175 9.825 h -3.075 c -0.056,0 -0.1,0.044 -0.1,0.1 v 6.35 c 0,0.055 0.044,0.1 0.1,0.1 h 3.075 v 6.149 h -3.075 c -0.056,10e-4 -0.1,0.045 -0.1,0.101 v 6.35 c 0,0.055 0.044,0.1 0.1,0.1 h 3.075 v 6.149 h -3.075 c -0.056,0.001 -0.1,0.045 -0.1,0.101 v 6.35 c 0,0.055 0.044,0.1 0.1,0.1 h 3.075 v 6.15 h -3.075 c -0.056,0 -0.1,0.044 -0.1,0.1 v 6.35 c 0,0.055 0.044,0.1 0.1,0.1 h 3.075 v 6.149 h -3.075 c -0.056,0.001 -0.1,0.045 -0.1,0.101 v 6.35 c 0,0.055 0.044,0.1 0.1,0.1 h 3.075 v 9.825 3.175 c 0,0.055 0.044,0.1 0.1,0.1 z"
       stroke="rgb(0,0,0)"
       stroke-width="0.20"
       id="path10577"
       style="stroke:#ff0000;stroke-width:0.01;stroke-dasharray:none;stroke-opacity:1" />
  </g>
  <g
     id="p-4"
     style="fill:none;stroke:#ff0000;stroke-width:0.01;stroke-linecap:round;stroke-linejoin:round;stroke-dasharray:none;stroke-opacity:1">
    <path
       d="M 13.575,228.688 H 23.2 c 0.055,0 0.1,-0.045 0.1,-0.1 v -3.075 h 6.15 v 3.075 c 0,0.055 0.045,0.1 0.1,0.1 h 6.35 c 0.055,0 0.1,-0.045 0.1,-0.1 v -3.075 h 6.15 v 3.075 c 0,0.055 0.045,0.1 0.1,0.1 h 6.35 c 0.055,0 0.1,-0.045 0.1,-0.1 v -3.075 h 6.15 v 3.075 c 0,0.055 0.045,0.1 0.1,0.1 h 6.35 c 0.055,0 0.1,-0.045 0.1,-0.1 v -3.076 h 6.15 v 3.076 c 0,0.055 0.045,0.1 0.1,0.1 H 74 c 0.055,0 0.1,-0.045 0.1,-0.1 v -3.075 h 6.15 v 3.075 c 0,0.055 0.045,0.1 0.1,0.1 h 6.35 c 0.055,0 0.1,-0.045 0.1,-0.1 v -3.075 h 6.15 v 3.075 c 0,0.055 0.045,0.1 0.1,0.1 h 6.35 c 0.055,0 0.1,-0.045 0.1,-0.1 v -3.076 h 6.15 v 3.076 c 0,0.055 0.045,0.1 0.1,0.1 h 6.35 c 0.055,0 0.1,-0.045 0.1,-0.1 v -3.075 h 6.15 v 3.075 c 0,0.055 0.045,0.1 0.1,0.1 h 6.35 c 0.055,0 0.1,-0.045 0.1,-0.1 v -3.075 h 6.15 v 3.075 c 0,0.055 0.045,0.1 0.1,0.1 h 6.35 c 0.055,0 0.1,-0.045 0.1,-0.1 v -3.075 h 6.15 v 3.075 c 0,0.055 0.045,0.1 0.1,0.1 h 6.35 c 0.055,0 0.1,-0.045 0.1,-0.1 v -3.076 h 6.15 v 3.076 c 0,0.055 0.045,0.1 0.1,0.1 h 6.35 c 0.055,0 0.1,-0.045 0.1,-0.1 v -3.076 h 6.15 v 3.076 c 0,0.055 0.045,0.1 0.1,0.1 h 6.35 c 0.055,0 0.1,-0.045 0.1,-0.1 v -3.076 h 6.15 v 3.076 c 0,0.055 0.045,0.1 0.1,0.1 h 9.625 3.175 c 0.055,0 0.1,-0.045 0.1,-0.1 v -3.175 -9.925 c 0,-0.056 -0.045,-0.1 -0.1,-0.1 h -3.075 v -6.151 h 3.075 c 0.055,0.001 0.1,-0.044 0.1,-0.099 v -6.35 c 0,-0.056 -0.045,-0.1 -0.1,-0.1 h -3.075 v -6.151 h 3.075 c 0.055,0.001 0.1,-0.044 0.1,-0.099 v -6.35 c 0,-0.056 -0.045,-0.1 -0.1,-0.1 h -3.075 v -6.151 h 3.075 c 0.055,0.001 0.1,-0.044 0.1,-0.099 v -6.35 c 0,-0.056 -0.045,-0.1 -0.1,-0.1 h -3.075 v -6.15 h 3.075 c 0.055,0 0.1,-0.045 0.1,-0.1 v -6.35 c 0,-0.056 -0.045,-0.1 -0.1,-0.1 h -3.075 v -6.15 h 3.075 c 0.055,0 0.1,-0.045 0.1,-0.1 v -9.925 -3.175 c 0,-0.056 -0.045,-0.1 -0.1,-0.1 h -3.175 -9.625 c -0.055,0 -0.1,0.044 -0.1,0.1 v 3.074 h -6.15 v -3.074 c 0,-0.056 -0.045,-0.1 -0.1,-0.1 h -6.35 c -0.055,0 -0.1,0.044 -0.1,0.1 v 3.075 H 163 v -3.075 c 0,-0.056 -0.045,-0.1 -0.1,-0.1 h -6.35 c -0.055,0 -0.1,0.044 -0.1,0.1 v 3.074 h -6.15 v -3.074 c 0,-0.056 -0.045,-0.1 -0.1,-0.1 h -6.35 c -0.055,0 -0.1,0.044 -0.1,0.1 v 3.075 h -6.15 v -3.075 c 0,-0.056 -0.045,-0.1 -0.1,-0.1 h -6.35 c -0.055,0 -0.1,0.044 -0.1,0.1 v 3.074 h -6.15 v -3.074 c 0,-0.056 -0.045,-0.1 -0.1,-0.1 h -6.35 c -0.055,0 -0.1,0.044 -0.1,0.1 v 3.074 h -6.15 v -3.074 c 0,-0.056 -0.045,-0.1 -0.1,-0.1 h -6.35 c -0.055,0 -0.1,0.044 -0.1,0.1 v 3.074 H 99.5 v -3.074 c 0,-0.056 -0.045,-0.1 -0.1,-0.1 h -6.35 c -0.055,0 -0.1,0.044 -0.1,0.1 v 3.075 H 86.8 v -3.075 c 0,-0.056 -0.045,-0.1 -0.1,-0.1 h -6.35 c -0.055,0 -0.1,0.044 -0.1,0.1 v 3.075 H 74.1 v -3.075 c 0,-0.056 -0.045,-0.1 -0.1,-0.1 h -6.35 c -0.055,0 -0.1,0.044 -0.1,0.1 v 3.075 H 61.4 v -3.075 c 0,-0.056 -0.045,-0.1 -0.1,-0.1 h -6.35 c -0.055,0 -0.1,0.044 -0.1,0.1 v 3.075 H 48.7 v -3.075 c 0,-0.056 -0.045,-0.1 -0.1,-0.1 h -6.35 c -0.055,0 -0.1,0.044 -0.1,0.1 v 3.075 H 36 v -3.075 c 0,-0.056 -0.045,-0.1 -0.1,-0.1 h -6.35 c -0.055,0 -0.1,0.044 -0.1,0.1 v 3.075 H 23.3 v -3.075 c 0,-0.056 -0.045,-0.1 -0.1,-0.1 H 13.575 10.4 c -0.055,0 -0.1,0.044 -0.1,0.1 v 3.175 9.925 c 0,0.055 0.045,0.1 0.1,0.1 h 3.075 v 6.15 H 10.4 c -0.055,0 -0.1,0.044 -0.1,0.1 v 6.35 c 0,0.055 0.045,0.1 0.1,0.1 h 3.075 v 6.15 H 10.4 c -0.055,0 -0.1,0.044 -0.1,0.1 v 6.35 c 0,0.055 0.045,0.1 0.1,0.1 h 3.075 v 6.15 H 10.4 c -0.055,0 -0.1,0.044 -0.1,0.1 v 6.35 c 0,0.055 0.045,0.1 0.1,0.1 h 3.075 v 6.15 H 10.4 c -0.055,0 -0.1,0.044 -0.1,0.1 v 6.35 c 0,0.055 0.045,0.1 0.1,0.1 h 3.075 v 6.15 H 10.4 c -0.055,0 -0.1,0.044 -0.1,0.1 v 9.925 3.175 c 0,0.055 0.045,0.1 0.1,0.1 z"
       stroke="rgb(0,0,0)"
       stroke-width="0.20"
       id="path10580"
       style="stroke:#ff0000;stroke-width:0.01;stroke-dasharray:none;stroke-opacity:1" />
  </g>
  <g
     id="p-5"
     style="fill:none;stroke:#ff0000;stroke-width:0.01;stroke-linecap:round;stroke-linejoin:round;stroke-dasharray:none;stroke-opacity:1">
    <path
       d="M 13.575,140.375 H 23.1 v 3.075 c 0,0.055 0.045,0.1 0.1,0.1 h 6.35 c 0.055,0 0.1,-0.045 0.1,-0.1 v -3.075 h 6.15 v 3.075 c 0,0.055 0.045,0.1 0.1,0.1 h 6.35 c 0.055,0 0.1,-0.045 0.1,-0.1 v -3.075 h 6.15 v 3.075 c 0,0.055 0.045,0.1 0.1,0.1 h 6.35 c 0.055,0 0.1,-0.045 0.1,-0.1 v -3.075 h 6.15 v 3.075 c 0,0.055 0.045,0.1 0.1,0.1 h 6.35 c 0.055,0 0.1,-0.045 0.1,-0.1 v -3.075 h 6.15 v 3.075 c 0,0.055 0.045,0.1 0.1,0.1 h 6.35 c 0.055,0 0.1,-0.045 0.1,-0.1 v -3.075 h 6.15 v 3.075 c 0,0.055 0.045,0.1 0.1,0.1 h 6.35 c 0.055,0 0.1,-0.045 0.1,-0.1 v -3.075 h 6.15 v 3.075 c 0,0.055 0.045,0.1 0.1,0.1 h 6.35 c 0.055,0 0.1,-0.045 0.1,-0.1 v -3.075 H 112 v 3.075 c 0,0.055 0.045,0.1 0.1,0.1 h 6.35 c 0.055,0 0.1,-0.045 0.1,-0.1 v -3.075 h 6.15 v 3.075 c 0,0.055 0.045,0.1 0.1,0.1 h 6.35 c 0.055,0 0.1,-0.045 0.1,-0.1 v -3.075 h 6.15 v 3.075 c 0,0.055 0.045,0.1 0.1,0.1 h 6.35 c 0.055,0 0.1,-0.045 0.1,-0.1 v -3.075 h 6.15 v 3.075 c 0,0.055 0.045,0.1 0.1,0.1 h 6.35 c 0.055,0 0.1,-0.045 0.1,-0.1 v -3.075 h 6.15 v 3.075 c 0,0.055 0.045,0.1 0.1,0.1 h 6.35 c 0.055,0 0.1,-0.045 0.1,-0.1 v -3.075 h 6.15 v 3.075 c 0,0.055 0.045,0.1 0.1,0.1 h 6.35 c 0.055,0 0.1,-0.045 0.1,-0.1 v -3.075 h 9.525 c 0.055,0 0.1,-0.045 0.1,-0.1 v -9.425 h 3.075 c 0.055,0 0.1,-0.045 0.1,-0.1 v -6.35 c 0,-0.055 -0.045,-0.1 -0.1,-0.1 h -3.075 v -6.15 h 3.075 c 0.055,0 0.1,-0.045 0.1,-0.1 v -6.35 c 0,-0.055 -0.045,-0.1 -0.1,-0.1 h -3.075 v -6.15 h 3.075 c 0.055,0 0.1,-0.045 0.1,-0.1 V 99 c 0,-0.055 -0.045,-0.1 -0.1,-0.1 h -3.075 v -6.15 h 3.075 c 0.055,0 0.1,-0.045 0.1,-0.1 V 86.3 c 0,-0.055 -0.045,-0.1 -0.1,-0.1 h -3.075 v -6.15 h 3.075 c 0.055,0 0.1,-0.045 0.1,-0.1 V 73.6 c 0,-0.055 -0.045,-0.1 -0.1,-0.1 h -3.075 v -6.15 h 3.075 c 0.055,0 0.1,-0.045 0.1,-0.1 V 60.9 c 0,-0.055 -0.045,-0.1 -0.1,-0.1 h -3.075 v -6.15 h 3.075 c 0.055,0 0.1,-0.045 0.1,-0.1 V 48.2 c 0,-0.055 -0.045,-0.1 -0.1,-0.1 h -3.075 v -6.15 h 3.075 c 0.055,0 0.1,-0.045 0.1,-0.1 V 35.5 c 0,-0.055 -0.045,-0.1 -0.1,-0.1 h -3.075 v -6.15 h 3.075 c 0.055,0 0.1,-0.045 0.1,-0.1 V 22.8 c 0,-0.055 -0.045,-0.1 -0.1,-0.1 h -3.075 v -9.425 c 0,-0.055 -0.045,-0.1 -0.1,-0.1 H 182.05 V 10.1 c 0,-0.055 -0.045,-0.1 -0.1,-0.1 h -6.35 c -0.055,0 -0.1,0.045 -0.1,0.1 v 3.075 h -6.15 V 10.1 c 0,-0.055 -0.045,-0.1 -0.1,-0.1 h -6.35 c -0.055,0 -0.1,0.045 -0.1,0.1 v 3.075 h -6.15 V 10.1 c 0,-0.055 -0.045,-0.1 -0.1,-0.1 h -6.35 c -0.055,0 -0.1,0.045 -0.1,0.1 v 3.075 h -6.15 V 10.1 c 0,-0.055 -0.045,-0.1 -0.1,-0.1 h -6.35 c -0.055,0 -0.1,0.045 -0.1,0.1 v 3.075 h -6.15 V 10.1 c 0,-0.055 -0.045,-0.1 -0.1,-0.1 h -6.35 c -0.055,0 -0.1,0.045 -0.1,0.1 v 3.075 h -6.15 V 10.1 c 0,-0.055 -0.045,-0.1 -0.1,-0.1 h -6.35 c -0.055,0 -0.1,0.045 -0.1,0.1 v 3.075 h -6.15 V 10.1 c 0,-0.055 -0.045,-0.1 -0.1,-0.1 H 99.4 c -0.055,0 -0.1,0.045 -0.1,0.1 v 3.075 H 93.15 V 10.1 c 0,-0.055 -0.045,-0.1 -0.1,-0.1 H 86.7 c -0.055,0 -0.1,0.045 -0.1,0.1 v 3.075 H 80.45 V 10.1 c 0,-0.055 -0.045,-0.1 -0.1,-0.1 H 74 c -0.055,0 -0.1,0.045 -0.1,0.1 v 3.075 H 67.75 V 10.1 c 0,-0.055 -0.045,-0.1 -0.1,-0.1 H 61.3 c -0.055,0 -0.1,0.045 -0.1,0.1 v 3.075 H 55.05 V 10.1 c 0,-0.055 -0.045,-0.1 -0.1,-0.1 H 48.6 c -0.055,0 -0.1,0.045 -0.1,0.1 v 3.075 H 42.35 V 10.1 c 0,-0.055 -0.045,-0.1 -0.1,-0.1 H 35.9 c -0.055,0 -0.1,0.045 -0.1,0.1 v 3.075 H 29.65 V 10.1 c 0,-0.055 -0.045,-0.1 -0.1,-0.1 H 23.2 c -0.055,0 -0.1,0.045 -0.1,0.1 v 3.075 h -9.525 c -0.055,0 -0.1,0.045 -0.1,0.1 V 22.7 H 10.4 c -0.055,0 -0.1,0.045 -0.1,0.1 v 6.35 c 0,0.055 0.045,0.1 0.1,0.1 h 3.075 V 35.4 H 10.4 c -0.055,0 -0.1,0.045 -0.1,0.1 v 6.35 c 0,0.055 0.045,0.1 0.1,0.1 h 3.075 V 48.1 H 10.4 c -0.055,0 -0.1,0.045 -0.1,0.1 v 6.35 c 0,0.055 0.045,0.1 0.1,0.1 h 3.075 V 60.8 H 10.4 c -0.055,0 -0.1,0.045 -0.1,0.1 v 6.35 c 0,0.055 0.045,0.1 0.1,0.1 h 3.075 V 73.5 H 10.4 c -0.055,0 -0.1,0.045 -0.1,0.1 v 6.35 c 0,0.055 0.045,0.1 0.1,0.1 h 3.075 V 86.2 H 10.4 c -0.055,0 -0.1,0.045 -0.1,0.1 v 6.35 c 0,0.055 0.045,0.1 0.1,0.1 h 3.075 V 98.9 H 10.4 c -0.055,0 -0.1,0.045 -0.1,0.1 v 6.35 c 0,0.055 0.045,0.1 0.1,0.1 h 3.075 v 6.15 H 10.4 c -0.055,0 -0.1,0.045 -0.1,0.1 v 6.35 c 0,0.055 0.045,0.1 0.1,0.1 h 3.075 v 6.15 H 10.4 c -0.055,0 -0.1,0.045 -0.1,0.1 v 6.35 c 0,0.055 0.045,0.1 0.1,0.1 h 3.075 v 9.425 c 0,0.055 0.045,0.1 0.1,0.1 z"
       stroke="rgb(0,0,0)"
       stroke-width="0.20"
       id="path10583"
       style="stroke:#ff0000;stroke-width:0.01;stroke-dasharray:none;stroke-opacity:1" />
  </g>
  <g
     id="p-6"
     style="fill:none;stroke:#ff0000;stroke-width:0.01;stroke-linecap:round;stroke-linejoin:round;stroke-dasharray:none;stroke-opacity:1">
    <path
       d="m 199.713,140.375 h 9.524 v 3.075 c 0.001,0.055 0.045,0.1 0.101,0.1 h 6.35 c 0.055,0 0.1,-0.045 0.1,-0.1 v -3.075 h 6.15 v 3.075 c 0,0.055 0.044,0.1 0.1,0.1 h 6.35 c 0.055,0 0.1,-0.045 0.1,-0.1 v -3.075 h 6.15 v 3.075 c 0,0.055 0.044,0.1 0.1,0.1 h 6.35 c 0.055,0 0.1,-0.045 0.1,-0.1 v -3.075 h 6.149 v 3.075 c 0.001,0.055 0.045,0.1 0.101,0.1 h 6.349 c 0.056,0 0.1,-0.045 0.1,-0.1 v -3.075 h 6.151 v 3.075 c 0,0.055 0.044,0.1 0.099,0.1 h 6.351 c 0.055,0 0.1,-0.045 0.1,-0.1 v -3.075 h 6.15 v 3.075 c 0,0.055 0.044,0.1 0.1,0.1 h 6.35 c 0.055,0 0.1,-0.045 0.1,-0.1 v -3.075 h 6.15 v 3.075 c 0,0.055 0.044,0.1 0.1,0.1 h 6.35 c 0.055,0 0.1,-0.045 0.1,-0.1 v -3.075 h 6.149 v 3.075 c 10e-4,0.055 0.045,0.1 0.101,0.1 h 6.35 c 0.055,0 0.1,-0.045 0.1,-0.1 v -3.075 h 6.149 v 3.075 c 0.001,0.055 0.045,0.1 0.101,0.1 h 6.35 c 0.055,0 0.1,-0.045 0.1,-0.1 v -3.075 h 6.15 v 3.075 c 0,0.055 0.044,0.1 0.1,0.1 h 6.35 c 0.055,0 0.1,-0.045 0.1,-0.1 v -3.075 h 6.15 v 3.075 c 0,0.055 0.044,0.1 0.1,0.1 h 6.35 c 0.055,0 0.1,-0.045 0.1,-0.1 v -3.075 h 6.149 v 3.075 c 10e-4,0.055 0.045,0.1 0.101,0.1 h 6.35 c 0.055,0 0.1,-0.045 0.1,-0.1 v -3.075 h 6.149 v 3.075 c 10e-4,0.055 0.045,0.1 0.101,0.1 h 6.35 c 0.055,0 0.1,-0.045 0.1,-0.1 v -3.075 h 9.525 c 0.055,0 0.1,-0.045 0.1,-0.1 v -9.425 h 3.075 c 0.055,0 0.1,-0.045 0.1,-0.1 v -6.35 c 0,-0.055 -0.045,-0.1 -0.1,-0.1 h -3.075 v -6.15 h 3.075 c 0.055,0 0.1,-0.045 0.1,-0.1 v -6.35 c 0,-0.055 -0.045,-0.1 -0.1,-0.1 h -3.075 v -6.15 h 3.075 c 0.055,0 0.1,-0.045 0.1,-0.1 V 99 c 0,-0.055 -0.045,-0.1 -0.1,-0.1 h -3.075 v -6.15 h 3.075 c 0.055,0 0.1,-0.045 0.1,-0.1 V 86.3 c 0,-0.055 -0.045,-0.1 -0.1,-0.1 h -3.075 v -6.15 h 3.075 c 0.055,0 0.1,-0.045 0.1,-0.1 V 73.6 c 0,-0.055 -0.045,-0.1 -0.1,-0.1 h -3.075 v -6.15 h 3.075 c 0.055,0 0.1,-0.045 0.1,-0.1 V 60.9 c 0,-0.055 -0.045,-0.1 -0.1,-0.1 h -3.075 v -6.15 h 3.075 c 0.055,0 0.1,-0.045 0.1,-0.1 V 48.2 c 0,-0.055 -0.045,-0.1 -0.1,-0.1 h -3.075 v -6.15 h 3.075 c 0.055,0 0.1,-0.045 0.1,-0.1 V 35.5 c 0,-0.055 -0.045,-0.1 -0.1,-0.1 h -3.075 v -6.15 h 3.075 c 0.055,0 0.1,-0.045 0.1,-0.1 V 22.8 c 0,-0.055 -0.045,-0.1 -0.1,-0.1 h -3.075 v -9.425 c 0,-0.055 -0.045,-0.1 -0.1,-0.1 h -9.525 V 10.1 c 0,-0.055 -0.045,-0.1 -0.1,-0.1 h -6.35 c -0.056,0 -0.1,0.045 -0.1,0.1 v 3.075 h -6.15 V 10.1 c 0,-0.055 -0.045,-0.1 -0.1,-0.1 h -6.35 c -0.056,0 -0.1,0.045 -0.1,0.1 v 3.075 h -6.15 V 10.1 c 0,-0.055 -0.045,-0.1 -0.1,-0.1 h -6.35 c -0.056,0 -0.1,0.045 -0.1,0.1 v 3.075 h -6.15 V 10.1 c 0,-0.055 -0.045,-0.1 -0.1,-0.1 h -6.35 c -0.056,0 -0.1,0.045 -0.1,0.1 v 3.075 h -6.15 V 10.1 c 0,-0.055 -0.045,-0.1 -0.1,-0.1 h -6.35 c -0.056,0 -0.1,0.045 -0.1,0.1 v 3.075 h -6.15 V 10.1 c 0,-0.055 -0.045,-0.1 -0.1,-0.1 h -6.35 c -0.056,0 -0.1,0.045 -0.1,0.1 v 3.075 h -6.15 V 10.1 c 0,-0.055 -0.045,-0.1 -0.1,-0.1 h -6.35 c -0.056,0 -0.1,0.045 -0.1,0.1 v 3.075 h -6.151 V 10.1 c 0.001,-0.055 -0.044,-0.1 -0.099,-0.1 h -6.35 c -0.056,0 -0.1,0.045 -0.1,0.1 v 3.075 h -6.151 V 10.1 c 0.001,-0.055 -0.044,-0.1 -0.099,-0.1 h -6.351 c -0.055,0 -0.099,0.045 -0.099,0.1 v 3.075 h -6.151 V 10.1 c 0,-0.055 -0.044,-0.1 -0.1,-0.1 h -6.349 c -0.056,0 -0.1,0.045 -0.1,0.1 v 3.075 h -6.151 V 10.1 c 10e-4,-0.055 -0.044,-0.1 -0.099,-0.1 h -6.35 c -0.056,0 -0.1,0.045 -0.1,0.1 v 3.075 h -6.15 V 10.1 c 0,-0.055 -0.045,-0.1 -0.1,-0.1 h -6.35 c -0.056,0 -0.1,0.045 -0.1,0.1 v 3.075 h -6.15 V 10.1 c 0,-0.055 -0.045,-0.1 -0.1,-0.1 h -6.35 c -0.056,0 -0.1,0.045 -0.1,0.1 v 3.075 h -9.525 c -0.056,0 -0.1,0.045 -0.1,0.1 V 22.7 h -3.075 c -0.056,0 -0.1,0.045 -0.1,0.1 v 6.35 c 0,0.055 0.044,0.1 0.1,0.1 h 3.075 v 6.15 h -3.075 c -0.056,0 -0.1,0.045 -0.1,0.1 v 6.35 c 0,0.055 0.044,0.1 0.1,0.1 h 3.074 v 6.15 h -3.074 c -0.056,0 -0.1,0.045 -0.1,0.1 v 6.35 c 0,0.055 0.044,0.1 0.1,0.1 h 3.074 v 6.15 h -3.074 c -0.056,0 -0.1,0.045 -0.1,0.1 v 6.35 c 0,0.055 0.044,0.1 0.1,0.1 h 3.074 v 6.15 h -3.074 c -0.056,0 -0.1,0.045 -0.1,0.1 v 6.35 c 0,0.055 0.044,0.1 0.1,0.1 h 3.074 v 6.15 h -3.074 c -0.056,0 -0.1,0.045 -0.1,0.1 v 6.35 c 0,0.055 0.044,0.1 0.1,0.1 h 3.075 v 6.15 h -3.075 c -0.056,0 -0.1,0.045 -0.1,0.1 v 6.35 c 0,0.055 0.044,0.1 0.1,0.1 h 3.075 v 6.15 h -3.075 c -0.056,0 -0.1,0.045 -0.1,0.1 v 6.35 c 0,0.055 0.044,0.1 0.1,0.1 h 3.074 v 6.15 h -3.074 c -0.056,0 -0.1,0.045 -0.1,0.1 v 6.35 c 0,0.055 0.044,0.1 0.1,0.1 h 3.074 v 9.425 c 0.001,0.055 0.045,0.1 0.101,0.1 z"
       stroke="rgb(0,0,0)"
       stroke-width="0.20"
       id="path10586"
       style="stroke:#ff0000;stroke-width:0.01;stroke-dasharray:none;stroke-opacity:1" />
  </g>
</svg>
