<?xml version="1.0" encoding="UTF-8" standalone="no"?>
<svg
   width="32in"
   height="20in"
   viewBox="0 0 812.79999 507.99999"
   version="1.1"
   id="svg2707"
   sodipodi:docname="oneeight_finalWeightEnclosure.svg"
   inkscape:version="1.2.2 (732a01da63, 2022-12-09)"
   xmlns:inkscape="http://www.inkscape.org/namespaces/inkscape"
   xmlns:sodipodi="http://sodipodi.sourceforge.net/DTD/sodipodi-0.dtd"
   xmlns="http://www.w3.org/2000/svg"
   xmlns:svg="http://www.w3.org/2000/svg"
   xmlns:rdf="http://www.w3.org/1999/02/22-rdf-syntax-ns#"
   xmlns:cc="http://creativecommons.org/ns#"
   xmlns:dc="http://purl.org/dc/elements/1.1/">
  <defs
     id="defs2711" />
  <sodipodi:namedview
     id="namedview2709"
     pagecolor="#ffffff"
     bordercolor="#000000"
     borderopacity="0.25"
     inkscape:showpageshadow="2"
     inkscape:pageopacity="0.0"
     inkscape:pagecheckerboard="0"
     inkscape:deskcolor="#d1d1d1"
     inkscape:document-units="mm"
     showgrid="false"
     inkscape:zoom="0.93502004"
     inkscape:cx="318.175"
     inkscape:cy="457.7442"
     inkscape:window-width="1920"
     inkscape:window-height="1009"
     inkscape:window-x="-8"
     inkscape:window-y="-8"
     inkscape:window-maximized="1"
     inkscape:current-layer="svg2707" />
  <!--
ClosedBox - Fully closed box


This box is more of a building block than a finished item.
Use a vector graphics program (like Inkscape) to add holes or adjust the base
plate.

See BasedBox for variant with a base.


Created with Boxes.py (https://festi.info/boxes.py)
Creation date: 2023-04-24 21:04:31
Command line (remove spaces between dashes): boxes ClosedBox - -x=53.975 - -y=79.375 - -h=53.975 - -outside=0 - -thickness=3.175 - -labels=0
Url: http://www.festi.info/boxes.py/ClosedBox?FingerJoint_angle=90.0&FingerJoint_style=rectangular&FingerJoint_surroundingspaces=2.0&FingerJoint_bottom_lip=0.0&FingerJoint_edge_width=1.0&FingerJoint_extra_length=0.0&FingerJoint_finger=2.0&FingerJoint_play=0.0&FingerJoint_space=2.0&FingerJoint_width=1.0&x=53.975&y=79.375&h=53.975&outside=0&thickness=3.175&format=svg&tabs=0.0&qr_code=0&debug=0&labels=0&reference=100&inner_corners=loop&burn=0.1&language=en&render=2
Url short: http://www.festi.info/boxes.py/ClosedBox?x=53.975&y=79.375&h=53.975&outside=0&thickness=3.175&labels=0
SettingsUrl: http://www.festi.info/boxes.py/ClosedBox?FingerJoint_angle=90.0&FingerJoint_style=rectangular&FingerJoint_surroundingspaces=2.0&FingerJoint_bottom_lip=0.0&FingerJoint_edge_width=1.0&FingerJoint_extra_length=0.0&FingerJoint_finger=2.0&FingerJoint_play=0.0&FingerJoint_space=2.0&FingerJoint_width=1.0&x=53.975&y=79.375&h=53.975&outside=0&thickness=3.175&format=svg&tabs=0.0&qr_code=0&debug=0&labels=0&reference=100&inner_corners=loop&burn=0.1&language=en&render=2
SettingsUrl short: http://www.festi.info/boxes.py/ClosedBox?x=53.975&y=79.375&h=53.975&outside=0&thickness=3.175&labels=0
-->
  <title
     id="title2680">ClosedBox</title>
  <metadata
     id="metadata2682">
    <rdf:RDF>
      <cc:Work>
        <dc:title>Box - ClosedBox</dc:title>
        <dc:date>2023-04-24 21:04:31</dc:date>
        <dc:source>http://www.festi.info/boxes.py/ClosedBox?FingerJoint_angle=90.0&amp;FingerJoint_style=rectangular&amp;FingerJoint_surroundingspaces=2.0&amp;FingerJoint_bottom_lip=0.0&amp;FingerJoint_edge_width=1.0&amp;FingerJoint_extra_length=0.0&amp;FingerJoint_finger=2.0&amp;FingerJoint_play=0.0&amp;FingerJoint_space=2.0&amp;FingerJoint_width=1.0&amp;x=53.975&amp;y=79.375&amp;h=53.975&amp;outside=0&amp;thickness=3.175&amp;format=svg&amp;tabs=0.0&amp;qr_code=0&amp;debug=0&amp;labels=0&amp;reference=100&amp;inner_corners=loop&amp;burn=0.1&amp;language=en&amp;render=2</dc:source>
        <dc:source>http://www.festi.info/boxes.py/ClosedBox?x=53.975&amp;y=79.375&amp;h=53.975&amp;outside=0&amp;thickness=3.175&amp;labels=0</dc:source>
        <dc:description>Fully closed box

This box is more of a building block than a finished item.
Use a vector graphics program (like Inkscape) to add holes or adjust the base
plate.

See BasedBox for variant with a base.

Created with Boxes.py (https://festi.info/boxes.py)
Command line: boxes ClosedBox --FingerJoint_angle=90.0 --FingerJoint_style=rectangular --FingerJoint_surroundingspaces=2.0 --FingerJoint_bottom_lip=0.0 --FingerJoint_edge_width=1.0 --FingerJoint_extra_length=0.0 --FingerJoint_finger=2.0 --FingerJoint_play=0.0 --FingerJoint_space=2.0 --FingerJoint_width=1.0 --x=53.975 --y=79.375 --h=53.975 --outside=0 --thickness=3.175 --format=svg --tabs=0.0 --qr_code=0 --debug=0 --labels=0 --reference=100 --inner_corners=loop --burn=0.1
Command line short: boxes ClosedBox --x=53.975 --y=79.375 --h=53.975 --outside=0 --thickness=3.175 --labels=0
Url: http://www.festi.info/boxes.py/ClosedBox?FingerJoint_angle=90.0&amp;FingerJoint_style=rectangular&amp;FingerJoint_surroundingspaces=2.0&amp;FingerJoint_bottom_lip=0.0&amp;FingerJoint_edge_width=1.0&amp;FingerJoint_extra_length=0.0&amp;FingerJoint_finger=2.0&amp;FingerJoint_play=0.0&amp;FingerJoint_space=2.0&amp;FingerJoint_width=1.0&amp;x=53.975&amp;y=79.375&amp;h=53.975&amp;outside=0&amp;thickness=3.175&amp;format=svg&amp;tabs=0.0&amp;qr_code=0&amp;debug=0&amp;labels=0&amp;reference=100&amp;inner_corners=loop&amp;burn=0.1&amp;language=en&amp;render=2
Url short: http://www.festi.info/boxes.py/ClosedBox?x=53.975&amp;y=79.375&amp;h=53.975&amp;outside=0&amp;thickness=3.175&amp;labels=0
SettingsUrl: http://www.festi.info/boxes.py/ClosedBox?FingerJoint_angle=90.0&amp;FingerJoint_style=rectangular&amp;FingerJoint_surroundingspaces=2.0&amp;FingerJoint_bottom_lip=0.0&amp;FingerJoint_edge_width=1.0&amp;FingerJoint_extra_length=0.0&amp;FingerJoint_finger=2.0&amp;FingerJoint_play=0.0&amp;FingerJoint_space=2.0&amp;FingerJoint_width=1.0&amp;x=53.975&amp;y=79.375&amp;h=53.975&amp;outside=0&amp;thickness=3.175&amp;format=svg&amp;tabs=0.0&amp;qr_code=0&amp;debug=0&amp;labels=0&amp;reference=100&amp;inner_corners=loop&amp;burn=0.1&amp;language=en&amp;render=2
SettingsUrl short: http://www.festi.info/boxes.py/ClosedBox?x=53.975&amp;y=79.375&amp;h=53.975&amp;outside=0&amp;thickness=3.175&amp;labels=0
</dc:description>
      </cc:Work>
    </rdf:RDF>
  </metadata>
  <g
     id="p-1"
     style="fill:none;stroke-linecap:round;stroke-linejoin:round;stroke:#ff0000;stroke-opacity:1;stroke-width:0.01;stroke-dasharray:none">
    <path
       d="m 13.575,220.15 h 11.113 c 0.055,0 0.1,-0.045 0.1,-0.1 v -3.075 c 0,-0.1 -0.1,0 0,0 h 6.149 c 0.101,0 10e-4,-0.1 0,0 v 3.075 c 10e-4,0.055 0.045,0.1 0.101,0.1 h 6.35 c 0.055,0 0.1,-0.045 0.1,-0.1 v -3.075 c 0,-0.1 -0.1,0 -10e-4,0 h 6.15 c 0.101,0 10e-4,-0.1 0,0 v 3.075 c 10e-4,0.055 0.045,0.1 0.101,0.1 h 6.35 c 0.055,0 0.1,-0.045 0.1,-0.1 v -3.075 c 0,-0.1 -0.1,0 0,0 h 6.149 c 0.101,0 10e-4,-0.1 0,0 v 3.075 c 10e-4,0.055 0.045,0.1 0.101,0.1 h 11.112 3.175 c 0.055,0 0.1,-0.045 0.1,-0.1 v -3.175 -11.113 c 0,-0.055 -0.045,-0.1 -0.1,-0.1 H 67.65 c -0.1,0 0,0.1 0,0.001 v -6.151 c 0,-0.1 -0.1,0 0,0 h 3.075 c 0.055,0 0.1,-0.044 0.1,-0.1 v -6.35 c 0,-0.055 -0.045,-0.1 -0.1,-0.1 H 67.65 c -0.1,0 0,0.1 0,0 v -6.15 c 0,-0.1 -0.1,0 0,0 h 3.075 c 0.055,0 0.1,-0.044 0.1,-0.1 v -6.35 c 0,-0.055 -0.045,-0.1 -0.1,-0.1 H 67.65 c -0.1,0 0,0.1 0,0 v -6.149 c 0,-0.101 -0.1,-0.001 0,0 h 3.075 c 0.055,-0.001 0.1,-0.045 0.1,-0.101 V 162.9 159.725 c 0,-0.055 -0.045,-0.1 -0.1,-0.1 H 67.55 56.438 c -0.056,0 -0.1,0.045 -0.1,0.1 v 3.075 c 0,0.1 0.1,0 -10e-4,0 h -6.15 c -0.099,0 0.001,0.1 0,0 v -3.075 c 0.001,-0.055 -0.044,-0.1 -0.099,-0.1 h -6.35 c -0.056,0 -0.1,0.045 -0.1,0.1 v 3.075 c 0,0.1 0.1,0 -10e-4,0 h -6.15 c -0.099,0 10e-4,0.1 0,0 v -3.075 c 10e-4,-0.055 -0.044,-0.1 -0.099,-0.1 h -6.35 c -0.056,0 -0.1,0.045 -0.1,0.1 v 3.075 c 0,0.1 0.1,0 -10e-4,0 h -6.15 c -0.099,0 0.001,0.1 0,0 v -3.075 c 0.001,-0.055 -0.044,-0.1 -0.099,-0.1 H 13.575 10.4 c -0.055,0 -0.1,0.045 -0.1,0.1 v 3.175 11.112 c 0,0.056 0.045,0.1 0.1,0.1 h 3.075 c 0.1,0 0,-0.1 0,0 v 6.151 c 0,0.099 0.1,-0.001 0,0 H 10.4 c -0.055,-0.001 -0.1,0.044 -0.1,0.099 v 6.35 c 0,0.056 0.045,0.1 0.1,0.1 h 3.075 c 0.1,0 0,-0.1 0,10e-4 v 6.149 c 0,0.1 0.1,0 0,0 H 10.4 c -0.055,0 -0.1,0.045 -0.1,0.1 v 6.35 c 0,0.056 0.045,0.1 0.1,0.1 h 3.075 c 0.1,0 0,-0.1 0,0.001 v 6.149 c 0,0.1 0.1,0 0,0 H 10.4 c -0.055,0 -0.1,0.045 -0.1,0.1 v 11.113 3.175 c 0,0.055 0.045,0.1 0.1,0.1 z"
       stroke="#000000"
       stroke-width="0.2"
       id="path2689"
       style="stroke:#ff0000;stroke-opacity:1;stroke-width:0.01;stroke-dasharray:none" />
  </g>
  <g
     id="p-2"
     style="fill:none;stroke-linecap:round;stroke-linejoin:round;stroke:#ff0000;stroke-opacity:1;stroke-width:0.01;stroke-dasharray:none">
    <path
       d="M 75.688,220.15 H 86.8 c 0.055,0 0.1,-0.045 0.1,-0.1 v -3.075 c 0,-0.1 -0.1,0 0,0 h 6.15 c 0.1,0 0,-0.1 0,0 v 3.075 c 0,0.055 0.045,0.1 0.1,0.1 h 6.35 c 0.055,0 0.1,-0.045 0.1,-0.1 v -3.075 c 0,-0.1 -0.1,0 0,0 h 6.15 c 0.1,0 0,-0.1 0,0 v 3.075 c 0,0.055 0.045,0.1 0.1,0.1 h 6.35 c 0.055,0 0.1,-0.045 0.1,-0.1 v -3.075 c 0,-0.1 -0.1,0 0,0 h 6.15 c 0.1,0 0,-0.1 0,0 v 3.075 c 0,0.055 0.045,0.1 0.1,0.1 h 6.35 c 0.055,0 0.1,-0.045 0.1,-0.1 v -3.075 c 0,-0.1 -0.1,0 0,0 h 6.15 c 0.1,0 0,-0.1 0,0 v 3.075 c 0,0.055 0.045,0.1 0.1,0.1 h 6.35 c 0.055,0 0.1,-0.045 0.1,-0.1 v -3.075 c 0,-0.1 -0.1,0 0,0 h 6.15 c 0.1,0 0,-0.1 0,0 v 3.075 c 0,0.055 0.045,0.1 0.1,0.1 h 11.112 c 0.056,0 0.1,-0.045 0.1,-0.1 v -3.175 -11.012 c 0,-0.101 -0.1,-0.001 0.001,0 h 3.074 c 0.056,-0.001 0.1,-0.045 0.1,-0.101 v -6.35 c 0,-0.055 -0.044,-0.1 -0.1,-0.1 h -3.074 c -0.101,0 -0.001,0.1 0,0 v -6.15 c -0.001,-0.1 -0.101,0 -0.001,0 h 3.075 c 0.056,0 0.1,-0.044 0.1,-0.1 v -6.35 c 0,-0.055 -0.044,-0.1 -0.1,-0.1 h -3.074 c -0.101,0 -0.001,0.1 0,0 v -6.15 c -0.001,-0.1 -0.101,0 0,0 h 3.074 c 0.056,0 0.1,-0.044 0.1,-0.1 v -6.35 c 0,-0.055 -0.044,-0.1 -0.1,-0.1 h -3.075 c -0.1,0 0,0.1 0,0.001 V 162.9 159.725 c 0,-0.055 -0.044,-0.1 -0.1,-0.1 H 143.95 c -0.055,0 -0.1,0.045 -0.1,0.1 v 3.075 c 0,0.1 0.1,0 0,0 h -6.15 c -0.1,0 0,0.1 0,0 v -3.075 c 0,-0.055 -0.045,-0.1 -0.1,-0.1 h -6.35 c -0.055,0 -0.1,0.045 -0.1,0.1 v 3.075 c 0,0.1 0.1,0 0,0 H 125 c -0.1,0 0,0.1 0,0 v -3.075 c 0,-0.055 -0.045,-0.1 -0.1,-0.1 h -6.35 c -0.055,0 -0.1,0.045 -0.1,0.1 v 3.075 c 0,0.1 0.1,0 0,0 h -6.15 c -0.1,0 0,0.1 0,0 v -3.075 c 0,-0.055 -0.045,-0.1 -0.1,-0.1 h -6.35 c -0.055,0 -0.1,0.045 -0.1,0.1 v 3.075 c 0,0.1 0.1,0 0,0 H 99.6 c -0.1,0 0,0.1 0,0 v -3.075 c 0,-0.055 -0.045,-0.1 -0.1,-0.1 h -6.35 c -0.055,0 -0.1,0.045 -0.1,0.1 v 3.075 c 0,0.1 0.1,0 0,0 H 86.9 c -0.1,0 0,0.1 0,0 v -3.075 c 0,-0.055 -0.045,-0.1 -0.1,-0.1 H 75.688 c -0.056,0 -0.1,0.045 -0.1,0.1 v 3.175 11.012 c 0,0.1 0.1,0 0,0 h -3.076 c -0.055,0 -0.1,0.045 -0.1,0.1 v 6.35 c 0,0.056 0.045,0.1 0.1,0.1 h 3.076 c 0.1,0 0,-0.1 0,0 v 6.151 c 0,0.099 0.1,-0.001 0,0 h -3.076 c -0.055,-0.001 -0.1,0.044 -0.1,0.099 v 6.35 c 0,0.056 0.045,0.1 0.1,0.1 h 3.076 c 0.1,0 0,-0.1 0,0.001 v 6.15 c 0,0.099 0.1,-10e-4 -10e-4,0 h -3.075 c -0.055,-10e-4 -0.1,0.044 -0.1,0.099 v 6.35 c 0,0.056 0.045,0.1 0.1,0.1 h 3.075 c 0.101,0 10e-4,-0.1 0,0 v 11.013 3.175 c 10e-4,0.055 0.045,0.1 0.101,0.1 z"
       stroke="#000000"
       stroke-width="0.2"
       id="path2692"
       style="stroke:#ff0000;stroke-opacity:1;stroke-width:0.01;stroke-dasharray:none" />
  </g>
  <g
     id="p-3"
     style="fill:none;stroke-linecap:round;stroke-linejoin:round;stroke:#ff0000;stroke-opacity:1;stroke-width:0.01;stroke-dasharray:none">
    <path
       d="M 75.688,158.037 H 86.8 c 0.055,0 0.1,-0.044 0.1,-0.099 v -3.076 c 0,-0.1 -0.1,0.001 0,0 h 6.15 c 0.1,0.001 0,-0.1 0,0.001 v 3.075 c 0,0.055 0.045,0.099 0.1,0.099 h 6.35 c 0.055,0 0.1,-0.044 0.1,-0.099 v -3.075 c 0,-0.101 -0.1,0 0,0 h 6.15 c 0.1,0 0,-0.101 0,-0.001 v 3.076 c 0,0.055 0.045,0.099 0.1,0.099 h 6.35 c 0.055,0 0.1,-0.044 0.1,-0.099 v -3.076 c 0,-0.1 -0.1,0.001 0,0 h 6.15 c 0.1,0.001 0,-0.1 0,0.001 v 3.075 c 0,0.055 0.045,0.099 0.1,0.099 h 6.35 c 0.055,0 0.1,-0.044 0.1,-0.099 v -3.076 c 0,-0.1 -0.1,0.001 0,0 h 6.15 c 0.1,0.001 0,-0.1 0,0.001 v 3.075 c 0,0.055 0.045,0.099 0.1,0.099 h 6.35 c 0.055,0 0.1,-0.044 0.1,-0.099 v -3.075 c 0,-0.101 -0.1,0 0,0 h 6.15 c 0.1,0 0,-0.101 0,0 v 3.075 c 0,0.055 0.045,0.099 0.1,0.099 h 11.112 c 0.056,0 0.1,-0.044 0.1,-0.099 v -3.176 -11.012 c 0,-0.1 -0.1,0 0,0 h 3.075 c 0.056,0 0.1,-0.045 0.1,-0.1 v -6.35 c 0,-0.055 -0.044,-0.1 -0.1,-0.1 h -3.075 c -0.1,0 0,0.1 0,0 v -6.15 c 0,-0.1 -0.1,0 0,0 h 3.075 c 0.056,0 0.1,-0.045 0.1,-0.1 v -6.35 c 0,-0.055 -0.044,-0.1 -0.1,-0.1 h -3.075 c -0.1,0 0,0.1 0,0 v -6.15 c 0,-0.1 -0.1,0 0,0 h 3.075 c 0.056,0 0.1,-0.045 0.1,-0.1 v -6.35 c 0,-0.055 -0.044,-0.1 -0.1,-0.1 h -3.075 c -0.1,0 0,0.1 0,0 v -11.012 -3.175 c 0,-0.056 -0.044,-0.1 -0.1,-0.1 H 143.95 c -0.055,0 -0.1,0.044 -0.1,0.1 v 3.075 c 0,0.1 0.1,0 0,0 h -6.15 c -0.1,0 0,0.1 0,0 v -3.075 c 0,-0.056 -0.045,-0.1 -0.1,-0.1 h -6.35 c -0.055,0 -0.1,0.044 -0.1,0.1 v 3.075 c 0,0.1 0.1,0 0,0 H 125 c -0.1,0 0,0.1 0,0 v -3.075 c 0,-0.056 -0.045,-0.1 -0.1,-0.1 h -6.35 c -0.055,0 -0.1,0.044 -0.1,0.1 v 3.075 c 0,0.1 0.1,0 0,0 h -6.15 c -0.1,0 0,0.1 0,-0.001 v -3.074 c 0,-0.056 -0.045,-0.1 -0.1,-0.1 h -6.35 c -0.055,0 -0.1,0.044 -0.1,0.1 v 3.075 c 0,0.1 0.1,0 0,0 H 99.6 c -0.1,0 0,0.1 0,0 v -3.075 c 0,-0.056 -0.045,-0.1 -0.1,-0.1 h -6.35 c -0.055,0 -0.1,0.044 -0.1,0.1 v 3.074 c 0,0.101 0.1,0.001 0,0 H 86.9 c -0.1,0.001 0,0.101 0,0 v -3.074 c 0,-0.056 -0.045,-0.1 -0.1,-0.1 H 75.688 c -0.056,0 -0.1,0.044 -0.1,0.1 v 3.175 11.012 c 0,0.1 0.1,0 -10e-4,0 h -3.075 c -0.055,0 -0.1,0.045 -0.1,0.1 v 6.35 c 0,0.055 0.045,0.1 0.1,0.1 h 3.076 c 0.1,0 0,-0.1 0,0 v 6.15 c 0,0.1 0.1,0 0,0 h -3.076 c -0.055,0 -0.1,0.045 -0.1,0.1 v 6.35 c 0,0.055 0.045,0.1 0.1,0.1 h 3.076 c 0.1,0 0,-0.1 0,0 v 6.15 c 0,0.1 0.1,0 -10e-4,0 h -3.075 c -0.055,0 -0.1,0.045 -0.1,0.1 v 6.35 c 0,0.055 0.045,0.1 0.1,0.1 h 3.076 c 0.1,0 0,-0.1 0,0 v 11.013 3.175 c 0,0.055 0.044,0.1 0.1,0.1 z"
       stroke="#000000"
       stroke-width="0.2"
       id="path2695"
       style="stroke:#ff0000;stroke-opacity:1;stroke-width:0.01;stroke-dasharray:none" />
  </g>
  <g
     id="p-4"
     style="fill:none;stroke-linecap:round;stroke-linejoin:round;stroke:#ff0000;stroke-opacity:1;stroke-width:0.01;stroke-dasharray:none">
    <path
       d="m 13.575,158.037 h 11.113 c 0.055,0 0.1,-0.044 0.1,-0.099 v -3.076 c 0,-0.1 -0.1,0.001 -0.001,0 h 6.151 c 0.1,0.001 0,-0.1 0,0 v 3.076 c 0,0.055 0.044,0.099 0.1,0.099 h 6.35 c 0.055,0 0.1,-0.044 0.1,-0.099 v -3.075 c 0,-0.101 -0.1,0 -10e-4,0 h 6.15 c 0.101,0 10e-4,-0.101 0,0 v 3.075 c 10e-4,0.055 0.045,0.099 0.101,0.099 h 6.35 c 0.055,0 0.1,-0.044 0.1,-0.099 v -3.076 c 0,-0.1 -0.1,0.001 -0.001,0 h 6.15 c 0.101,0.001 10e-4,-0.1 0,0 v 3.076 c 10e-4,0.055 0.045,0.099 0.101,0.099 h 11.112 3.175 c 0.055,0 0.1,-0.044 0.1,-0.099 v -3.176 -11.112 c 0,-0.055 -0.045,-0.1 -0.1,-0.1 H 67.65 c -0.1,0 0,0.1 0,0 v -6.15 c 0,-0.1 -0.1,0 0,0 h 3.075 c 0.055,0 0.1,-0.045 0.1,-0.1 v -6.35 c 0,-0.055 -0.045,-0.1 -0.1,-0.1 H 67.65 c -0.1,0 0,0.1 0,0 v -6.15 c 0,-0.1 -0.1,0 0,0 h 3.075 c 0.055,0 0.1,-0.045 0.1,-0.1 v -6.35 c 0,-0.055 -0.045,-0.1 -0.1,-0.1 H 67.65 c -0.1,0 0,0.1 0,0 V 112 c 0,-0.1 -0.1,0 0,0 h 3.075 c 0.055,0 0.1,-0.045 0.1,-0.1 v -11.112 -3.175 c 0,-0.056 -0.045,-0.1 -0.1,-0.1 H 67.55 56.438 c -0.056,0 -0.1,0.044 -0.1,0.1 v 3.075 c 0,0.1 0.1,0 -10e-4,0 h -6.15 c -0.099,0 0.001,0.1 0,-0.001 v -3.074 c 0.001,-0.056 -0.044,-0.1 -0.099,-0.1 h -6.35 c -0.056,0 -0.1,0.044 -0.1,0.1 v 3.075 c 0,0.1 0.1,0 -10e-4,0 h -6.15 c -0.099,0 10e-4,0.1 0,0 v -3.075 c 10e-4,-0.056 -0.044,-0.1 -0.099,-0.1 h -6.35 c -0.056,0 -0.1,0.044 -0.1,0.1 v 3.074 c 0,0.101 0.1,0.001 0,0 h -6.151 c -0.099,0.001 0.001,0.101 0,0.001 v -3.075 c 0.001,-0.056 -0.044,-0.1 -0.099,-0.1 H 13.575 10.4 c -0.055,0 -0.1,0.044 -0.1,0.1 v 3.175 11.112 c 0,0.055 0.045,0.1 0.1,0.1 h 3.075 c 0.1,0 0,-0.1 0,0 v 6.15 c 0,0.1 0.1,0 0,0 H 10.4 c -0.055,0 -0.1,0.045 -0.1,0.1 v 6.35 c 0,0.055 0.045,0.1 0.1,0.1 h 3.075 c 0.1,0 0,-0.1 0,0 v 6.15 c 0,0.1 0.1,0 0,0 H 10.4 c -0.055,0 -0.1,0.045 -0.1,0.1 v 6.35 c 0,0.055 0.045,0.1 0.1,0.1 h 3.075 c 0.1,0 0,-0.1 0,0 v 6.15 c 0,0.1 0.1,0 0,0 H 10.4 c -0.055,0 -0.1,0.045 -0.1,0.1 v 11.113 3.175 c 0,0.055 0.045,0.1 0.1,0.1 h 3.175 z"
       stroke="#000000"
       stroke-width="0.2"
       id="path2698"
       style="stroke:#ff0000;stroke-opacity:1;stroke-width:0.01;stroke-dasharray:none" />
  </g>
  <g
     id="p-5"
     style="fill:none;stroke-linecap:round;stroke-linejoin:round;stroke:#ff0000;stroke-opacity:1;stroke-width:0.01;stroke-dasharray:none">
    <path
       d="m 13.575,92.75 h 11.013 c 0.1,0 0,-0.1 0,0 v 3.075 c 0,0.055 0.044,0.1 0.1,0.1 h 6.35 c 0.055,0 0.1,-0.045 0.1,-0.1 V 92.75 c 0,-0.1 -0.1,0 0,0 h 6.149 c 0.101,0 10e-4,-0.1 0,0 v 3.075 c 10e-4,0.055 0.045,0.1 0.101,0.1 h 6.35 c 0.055,0 0.1,-0.045 0.1,-0.1 V 92.75 c 0,-0.1 -0.1,0 -10e-4,0 h 6.15 c 0.101,0 10e-4,-0.1 0,0 v 3.075 c 10e-4,0.055 0.045,0.1 0.101,0.1 h 6.35 c 0.055,0 0.1,-0.045 0.1,-0.1 V 92.75 c 0,-0.1 -0.1,0 0,0 H 67.55 c 0.055,0 0.1,-0.045 0.1,-0.1 V 81.638 c 0,-0.101 -0.1,-0.001 0,0 h 3.075 c 0.055,-0.001 0.1,-0.045 0.1,-0.101 v -6.35 c 0,-0.055 -0.045,-0.1 -0.1,-0.1 H 67.65 c -0.1,0 0,0.1 0,0 v -6.15 c 0,-0.1 -0.1,0 0,0 h 3.075 c 0.055,0 0.1,-0.044 0.1,-0.1 v -6.35 c 0,-0.055 -0.045,-0.1 -0.1,-0.1 H 67.65 c -0.1,0 0,0.1 0,0 v -6.149 c 0,-0.101 -0.1,-10e-4 0,0 h 3.075 c 0.055,-10e-4 0.1,-0.045 0.1,-0.101 v -6.35 c 0,-0.055 -0.045,-0.099 -0.1,-0.099 H 67.65 c -0.1,0 0,0.099 0,0 v -6.151 c 0,-0.099 -0.1,0 0,0 h 3.075 c 0.055,0 0.1,-0.044 0.1,-0.099 v -6.35 c 0,-0.056 -0.045,-0.1 -0.1,-0.1 H 67.65 c -0.1,0 0,0.1 0,-10e-4 v -6.15 c 0,-0.099 -0.1,0.001 0,0 h 3.075 c 0.055,0.001 0.1,-0.044 0.1,-0.099 v -6.35 c 0,-0.056 -0.045,-0.1 -0.1,-0.1 H 67.65 c -0.1,0 0,0.1 0,0 V 13.275 c 0,-0.055 -0.045,-0.1 -0.1,-0.1 H 56.538 c -0.1,0 0,0.1 0,0 V 10.1 c 0,-0.055 -0.045,-0.1 -0.1,-0.1 h -6.35 c -0.056,0 -0.1,0.045 -0.1,0.1 v 3.075 c 0,0.1 0.1,0 -10e-4,0 h -6.15 c -0.099,0 10e-4,0.1 0,0 V 10.1 C 43.838,10.045 43.793,10 43.738,10 h -6.35 c -0.056,0 -0.1,0.045 -0.1,0.1 v 3.075 c 0,0.1 0.1,0 -10e-4,0 h -6.15 c -0.099,0 0.001,0.1 0,0 V 10.1 C 31.138,10.045 31.093,10 31.038,10 h -6.35 c -0.056,0 -0.1,0.045 -0.1,0.1 v 3.075 c 0,0.1 0.1,0 0,0 H 13.575 c -0.055,0 -0.1,0.045 -0.1,0.1 v 11.013 c 0,0.1 0.1,0 0,0 H 10.4 c -0.055,0 -0.1,0.044 -0.1,0.1 v 6.35 c 0,0.055 0.045,0.1 0.1,0.1 h 3.075 c 0.1,0 0,-0.1 0,-0.001 v 6.151 c 0,0.1 0.1,0 0,0 H 10.4 c -0.055,0 -0.1,0.044 -0.1,0.1 v 6.35 c 0,0.055 0.045,0.099 0.1,0.099 h 3.075 c 0.1,0 0,-0.099 0,10e-4 v 6.15 c 0,0.099 0.1,0 0,0 H 10.4 c -0.055,0 -0.1,0.044 -0.1,0.099 v 6.35 c 0,0.056 0.045,0.1 0.1,0.1 h 3.075 c 0.1,0 0,-0.1 0,0 v 6.15 c 0,0.1 0.1,0 0,0 H 10.4 c -0.055,0 -0.1,0.045 -0.1,0.1 v 6.35 c 0,0.056 0.045,0.1 0.1,0.1 h 3.075 c 0.1,0 0,-0.1 0,0 v 6.15 c 0,0.1 0.1,0 0,0 H 10.4 c -0.055,0 -0.1,0.045 -0.1,0.1 v 6.35 c 0,0.056 0.045,0.1 0.1,0.1 h 3.075 c 0.1,0 0,-0.1 0,0 V 92.65 c 0,0.055 0.045,0.1 0.1,0.1 z"
       stroke="#000000"
       stroke-width="0.2"
       id="path2701"
       style="stroke:#ff0000;stroke-opacity:1;stroke-width:0.01;stroke-dasharray:none" />
  </g>
  <g
     id="p-6"
     style="fill:none;stroke-linecap:round;stroke-linejoin:round;stroke:#ff0000;stroke-opacity:1;stroke-width:0.01;stroke-dasharray:none">
    <path
       d="M 75.688,92.75 H 86.7 c 0.1,0 0,-0.1 0,0 v 3.075 c 0,0.055 0.045,0.1 0.1,0.1 h 6.35 c 0.055,0 0.1,-0.045 0.1,-0.1 V 92.75 c 0,-0.1 -0.1,0 0,0 h 6.15 c 0.1,0 0,-0.1 0,0 v 3.075 c 0,0.055 0.045,0.1 0.1,0.1 h 6.35 c 0.055,0 0.1,-0.045 0.1,-0.1 V 92.75 c 0,-0.1 -0.1,0 0,0 h 6.15 c 0.1,0 0,-0.1 0,0 v 3.075 c 0,0.055 0.045,0.1 0.1,0.1 h 6.35 c 0.055,0 0.1,-0.045 0.1,-0.1 V 92.75 c 0,-0.1 -0.1,0 0,0 h 11.012 c 0.056,0 0.1,-0.045 0.1,-0.1 V 81.637 c 0,-0.1 -0.1,0 0,0 h 3.075 c 0.056,0 0.1,-0.044 0.1,-0.1 v -6.35 c 0,-0.055 -0.044,-0.1 -0.1,-0.1 h -3.075 c -0.1,0 0,0.1 0,0 v -6.149 c 0,-0.101 -0.1,-0.001 0,0 h 3.075 c 0.056,-0.001 0.1,-0.045 0.1,-0.101 v -6.35 c 0,-0.055 -0.044,-0.1 -0.1,-0.1 h -3.075 c -0.1,0 0,0.1 0,10e-4 v -6.151 c 0,-0.1 -0.1,0 0.001,0 h 3.074 c 0.056,0 0.1,-0.044 0.1,-0.1 v -6.35 c 0,-0.055 -0.044,-0.099 -0.1,-0.099 h -3.075 c -0.1,0 0,0.099 0,0 v -6.15 c 0,-0.1 -0.1,-10e-4 0.001,0 h 3.074 c 0.056,-10e-4 0.1,-0.045 0.1,-0.1 v -6.35 c 0,-0.056 -0.044,-0.1 -0.1,-0.1 h -3.075 c -0.1,0 0,0.1 0,0 v -6.15 c 0,-0.1 -0.1,0 0.001,0 h 3.074 c 0.056,0 0.1,-0.045 0.1,-0.1 v -6.35 c 0,-0.056 -0.044,-0.1 -0.1,-0.1 h -3.075 c -0.1,0 0,0.1 0,0 V 13.275 c 0,-0.055 -0.044,-0.1 -0.1,-0.1 H 118.65 c -0.1,0 0,0.1 0,0 V 10.1 c 0,-0.055 -0.045,-0.1 -0.1,-0.1 h -6.35 c -0.055,0 -0.1,0.045 -0.1,0.1 v 3.075 c 0,0.1 0.1,0 0,0 h -6.15 c -0.1,0 0,0.1 0,0 V 10.1 c 0,-0.055 -0.045,-0.1 -0.1,-0.1 H 99.5 c -0.055,0 -0.1,0.045 -0.1,0.1 v 3.075 c 0,0.1 0.1,0 0,0 h -6.15 c -0.1,0 0,0.1 0,0 V 10.1 c 0,-0.055 -0.045,-0.1 -0.1,-0.1 H 86.8 c -0.055,0 -0.1,0.045 -0.1,0.1 v 3.075 c 0,0.1 0.1,0 0,0 H 75.687 c -0.055,0 -0.1,0.045 -0.1,0.1 v 11.012 c 0,0.101 0.1,0.001 0,0 h -3.075 c -0.055,0.001 -0.1,0.045 -0.1,0.101 v 6.35 c 0,0.055 0.045,0.1 0.1,0.1 h 3.075 c 0.1,0 0,-0.1 0,-0.001 v 6.15 c 0,0.101 0.1,10e-4 0,0 h -3.075 c -0.055,10e-4 -0.1,0.045 -0.1,0.101 v 6.35 c 0,0.055 0.045,0.099 0.1,0.099 h 3.075 c 0.1,0 0,-0.099 0,10e-4 v 6.149 c 0,0.1 0.1,0.001 0,0 h -3.075 c -0.055,0.001 -0.1,0.045 -0.1,0.1 v 6.35 c 0,0.056 0.045,0.1 0.1,0.1 h 3.076 c 0.099,0 -10e-4,-0.1 0,10e-4 v 6.149 c -10e-4,0.1 0.099,0 -10e-4,0 h -3.075 c -0.055,0 -0.1,0.045 -0.1,0.1 v 6.35 c 0,0.056 0.045,0.1 0.1,0.1 h 3.075 c 0.1,0 0,-0.1 0,0 v 6.15 c 0,0.1 0.1,0 10e-4,0 h -3.076 c -0.055,0 -0.1,0.045 -0.1,0.1 v 6.35 c 0,0.056 0.045,0.1 0.1,0.1 h 3.076 c 0.099,0 -10e-4,-0.1 0,0 V 92.65 c -10e-4,0.055 0.044,0.1 0.099,0.1 z"
       stroke="#000000"
       stroke-width="0.2"
       id="path2704"
       style="stroke:#ff0000;stroke-opacity:1;stroke-width:0.01;stroke-dasharray:none" />
  </g>
</svg>
